<?xml version="1.0" standalone="no"?><!DOCTYPE svg PUBLIC "-//W3C//DTD SVG 1.1//EN" "http://www.w3.org/Graphics/SVG/1.1/DTD/svg11.dtd"><svg t="1513674443274" class="icon" style="" viewBox="0 0 1024 1024" version="1.1" xmlns="http://www.w3.org/2000/svg" p-id="31131" xmlns:xlink="http://www.w3.org/1999/xlink" width="128" height="128"><defs><style type="text/css"></style></defs><path d="M768 505.018182l-6.981818 4.654545-6.981818-4.654545-2.327273-2.327273c-39.563636 128-153.6 242.036364-288.581818 286.254546-69.818182 23.272727-111.709091 11.636364-151.272728-46.545455-30.254545-44.218182-44.218182-118.690909 51.2-193.163636 90.763636-72.145455 153.6-81.454545 239.709091-118.690909l-4.654545-2.327273v-6.981818s2.327273-41.890909 62.836364-74.472728c11.636364-6.981818 25.6-11.636364 37.236363-11.636363 6.981818-2.327273 16.290909-2.327273 23.272727 0v-25.6c0-11.636364-2.327273-23.272727-4.654545-30.254546l-4.654545-16.290909 16.290909 2.327273 44.218181 2.327273h9.309091v9.309091c0 11.636364-2.327273 25.6-4.654545 41.890909-2.327273 11.636364-4.654545 25.6-9.309091 39.563636 6.981818 6.981818 11.636364 13.963636 16.290909 20.945455 4.654545 9.309091 9.309091 23.272727 11.636364 37.236363 11.636364 58.181818-27.927273 88.436364-27.927273 88.436364zM225.745455 430.545455c0-67.490909 44.218182-125.672727 109.381818-151.272728 6.981818 6.981818 13.963636 11.636364 18.618182 16.290909-6.981818 9.309091-13.963636 18.618182-18.618182 25.6l-16.290909 23.272728 27.927272 4.654545c16.290909 2.327273 34.909091 2.327273 51.2 0 6.981818-2.327273 11.636364-4.654545 18.618182-6.981818 11.636364 13.963636 32.581818 27.927273 46.545455 37.236364l23.272727 13.963636 4.654545-27.927273c2.327273-16.290909 0-37.236364-2.327272-51.2 0-2.327273 0-2.327273-2.327273-4.654545 6.981818-4.654545 13.963636-6.981818 20.945455-11.636364 25.6 16.290909 48.872727 41.890909 60.50909 67.490909-6.981818 9.309091-11.636364 20.945455-13.963636 32.581818-20.945455 6.981818-41.890909 16.290909-60.509091 23.272728-60.509091 23.272727-107.054545 48.872727-158.254545 90.763636-16.290909 13.963636-32.581818 27.927273-44.218182 44.218182-41.890909-30.254545-65.163636-74.472727-65.163636-125.672727z m165.236363-181.527273c9.309091 2.327273 18.618182 9.309091 23.272727 18.618182 0-13.963636 2.327273-25.6 13.963637-44.218182l20.945454 13.963636c-6.981818 11.636364-9.309091 20.945455-9.309091 32.581818 9.309091-4.654545 18.618182-9.309091 27.927273-6.981818 23.272727 2.327273 41.890909 13.963636 41.890909 13.963637s-30.254545 20.945455-48.872727 27.927272c4.654545 4.654545 9.309091 11.636364 11.636364 16.290909 6.981818 23.272727 2.327273 44.218182 2.327272 44.218182s-32.581818-20.945455-44.218181-34.909091c-4.654545-4.654545-4.654545-11.636364-6.981819-16.290909-6.981818 9.309091-16.290909 18.618182-27.927272 20.945455-23.272727 4.654545-44.218182 0-44.218182 0s20.945455-30.254545 37.236363-41.890909l2.327273-2.327273c-9.309091 0-20.945455 0-27.927273-6.981818-18.618182-13.963636-30.254545-32.581818-30.254545-32.581818s39.563636-6.981818 58.181818-2.327273zM512 0C228.072727 0 0 228.072727 0 512s228.072727 512 512 512 512-228.072727 512-512S795.927273 0 512 0z" p-id="31132" fill="#5838c8"></path></svg>