<?xml version="1.0" standalone="no"?><!DOCTYPE svg PUBLIC "-//W3C//DTD SVG 1.1//EN" "http://www.w3.org/Graphics/SVG/1.1/DTD/svg11.dtd"><svg t="1513673427844" class="icon" style="" viewBox="0 0 1024 1024" version="1.1" xmlns="http://www.w3.org/2000/svg" p-id="18331" xmlns:xlink="http://www.w3.org/1999/xlink" width="128" height="128"><defs><style type="text/css"></style></defs><path d="M512 0c-282.88 0-512 229.12-512 512s229.12 512 512 512 512-229.12 512-512-229.12-512-512-512z m-42.24 797.866667c-2.986667 7.68-7.68 14.08-13.226667 19.626666-5.546667 5.546667-12.373333 9.813333-20.053333 13.226667s-15.786667 5.12-23.893333 5.12c-8.96 0-17.066667-1.706667-24.32-5.12-7.253333-3.413333-14.08-7.68-19.626667-13.226667-5.973333-5.546667-10.24-11.946667-13.226667-19.626666-2.986667-7.68-4.693333-15.36-4.693333-23.893334s1.706667-16.64 4.693333-23.893333c2.986667-7.68 7.68-14.08 13.226667-19.626667 5.973333-5.546667 12.373333-9.813333 19.626667-12.8s15.36-4.693333 24.32-4.693333c8.533333 0 16.64 1.706667 23.893333 4.693333 7.68 2.986667 14.08 7.253333 20.053333 12.8s10.24 11.946667 13.226667 19.626667c2.986667 7.68 4.693333 15.36 4.693333 23.893333s-1.28 16.64-4.693333 23.893334z m277.76 1.706666c-3.413333 7.68-7.68 14.08-13.226667 19.626667s-12.373333 9.813333-20.053333 13.226667-15.786667 5.12-24.32 5.12-16.64-1.706667-23.893333-5.12c-7.68-3.413333-14.08-7.68-19.626667-13.226667s-9.813333-11.946667-13.226667-19.626667c-3.413333-7.68-5.12-15.36-5.12-23.893333s1.706667-16.64 5.12-23.893333c3.413333-7.68 7.68-14.08 13.226667-19.626667s11.946667-9.813333 19.626667-12.8c7.68-2.986667 15.36-4.693333 23.893333-4.693333s16.64 1.706667 24.32 4.693333 14.506667 7.253333 20.053333 12.8 9.813333 11.946667 13.226667 19.626667c3.413333 7.68 5.12 15.36 5.12 23.893333 0 8.106667-1.706667 16.213333-5.12 23.893333z m99.84-416.853333c-1.28 3.84-4.266667 12.373333-8.533333 24.746667s-8.96 26.026667-14.506667 40.96c-5.12 14.933333-10.666667 29.866667-15.786667 44.373333s-8.96 26.026667-11.52 34.56c-5.973333 17.92-13.226667 30.293333-22.186666 37.12s-19.626667 10.24-32.853334 10.24h-349.866666l9.813333 60.16H738.133333c21.333333 0 32 8.96 32 27.306667 0 8.96-2.133333 16.64-6.4 23.04s-12.373333 9.813333-25.173333 9.813333h-349.44c-8.96 0-16.213333-2.133333-22.186667-5.973333-5.973333-3.84-11.093333-9.386667-14.933333-15.786667s-7.253333-13.226667-9.813333-20.906667-4.266667-14.506667-5.546667-21.333333c-0.426667-2.56-1.706667-8.96-3.84-19.2s-4.266667-23.04-7.253333-38.4-5.973333-32.426667-9.813334-51.2-7.253333-37.973333-10.666666-57.173333c-8.533333-44.8-17.92-94.72-28.586667-150.186667h-49.92c-6.826667 0-12.373333-1.706667-16.64-5.12-4.266667-3.413333-8.106667-7.253333-11.093333-11.946667-2.986667-4.693333-4.693333-9.813333-5.973334-14.933333-1.28-5.12-1.706667-10.24-1.706666-14.506667 0-8.96 2.986667-16.213333 8.96-22.186666 5.973333-5.973333 14.08-8.533333 24.32-8.533334h67.413333c8.96 0 16.213333 1.28 21.333333 3.84s9.386667 5.973333 12.8 9.813334c2.986667 3.84 5.546667 8.106667 6.826667 12.8 1.28 4.266667 2.56 8.106667 3.413333 11.52 0.853333 3.413333 1.706667 8.533333 2.56 14.933333s1.706667 12.8 2.56 19.626667c1.28 8.106667 2.56 16.64 3.84 25.173333h456.106667c12.373333 0 22.186667 1.706667 29.013333 5.12 6.826667 3.413333 11.946667 7.253333 14.506667 12.373333 2.986667 4.693333 4.266667 10.24 3.84 15.786667 0.853333 5.12 0 10.24-1.28 14.08z" fill="#1296db" p-id="18332"></path></svg>