<?xml version="1.0" standalone="no"?><!DOCTYPE svg PUBLIC "-//W3C//DTD SVG 1.1//EN" "http://www.w3.org/Graphics/SVG/1.1/DTD/svg11.dtd"><svg t="1513673562143" class="icon" style="" viewBox="0 0 1024 1024" version="1.1" xmlns="http://www.w3.org/2000/svg" p-id="20053" xmlns:xlink="http://www.w3.org/1999/xlink" width="128" height="128"><defs><style type="text/css"></style></defs><path d="M393.94304 483.46624H344.1664s-6.42048 158.06976 88.32 208.59904c-73.86624-146.67776-38.54336-208.59904-38.54336-208.59904zM698.51136 510.80704c-1.17248 24.192-8.1408 61.58848-30.08 101.2992 1.65376 0.25088 3.28704 0.54784 4.98176 0.70144 0.72192 0.04096 1.408 0.16896 2.1248 0.20992a69.76 69.76 0 0 0 12.59008-0.67584 72.73984 72.73984 0 0 0 10.53696-2.18112c31.9232-9.48736 51.53792-38.89664 43.81184-65.70496-5.43232-18.82112-22.9888-31.13472-43.96544-33.64864z" p-id="20054" fill="#f11081"></path><path d="M512 21.33504c-272.63488 0-493.64992 221.01504-493.64992 493.65504C18.35008 787.62496 239.36512 1008.64 512 1008.64c272.64 0 493.65504-221.01504 493.65504-493.64992 0-272.64-221.01504-493.65504-493.65504-493.65504z m45.02016 175.87712c-81.4336 84.67456 129.14176 124.48256-28.79488 233.344 63.56992-86.70208 0-108.34432-14.88896-123.45344-14.91456-15.1296-28.82048-97.792 43.68384-109.89056z m-81.55136 43.07456c-66.70848 69.34528 105.73824 101.10464-23.59808 190.26944 52.06016-70.99392 0-87.8848-12.19584-100.2752-12.20096-12.3904-23.58784-80.09728 35.79392-89.99424z m226.58048 528.44544H284.8768c-40.71936 0-34.7648-33.99168-34.7648-33.99168h482.7136c0.00512 0 2.00192 33.99168-30.77632 33.99168z m5.33504-128.256a122.03008 122.03008 0 0 1-16.04096 3.47136c-4.22912 0.62464-8.42752 1.09568-12.56448 1.24928h-0.1024a105.6256 105.6256 0 0 1-12.63616-0.35328c-0.84992-0.06144-1.70496-0.15872-2.56-0.24576a98.44736 98.44736 0 0 1-11.99616-1.89952c-15.488 22.81472-35.75808 55.15264-62.67904 79.13472H412.0064c-94.18752-49.46944-109.60384-184.09472-112.128-225.13152-0.02048-0.37888-0.11264-0.72192-0.11264-1.09056v-0.62976c-0.4096-7.29088-0.39424-11.48928-0.39424-11.48928h0.39424c0-16.70144 13.34272-34.80064 29.80352-34.80064h339.69664c14.63296 0 26.73664 15.2832 29.2608 29.39904 4.62336 0.16896 9.14432 0.66048 13.55776 1.38752 0.31232 0.0512 0.63488 0.12288 0.9472 0.18432 8.63744 1.54112 16.80896 4.10624 24.33024 7.65952 0.47104 0.22016 0.93696 0.47104 1.41312 0.70144 3.56864 1.77152 7.02976 3.69664 10.26048 5.90336l0.16896 0.11264c3.21536 2.19648 6.19008 4.63872 9.0112 7.2448 0.5632 0.51712 1.09056 1.03936 1.6128 1.55648 2.63168 2.56 5.0944 5.24288 7.296 8.1408 0.06656 0.13312 0.16896 0.22016 0.26624 0.34304a69.5296 69.5296 0 0 1 5.85728 9.45664c0.4096 0.77824 0.78848 1.56672 1.17248 2.36544 1.62304 3.38944 3.08224 6.89152 4.13184 10.58304 12.56448 43.55072-19.3024 91.3408-71.168 106.74688z" p-id="20055" fill="#f11081"></path></svg>