<?xml version="1.0" standalone="no"?><!DOCTYPE svg PUBLIC "-//W3C//DTD SVG 1.1//EN" "http://www.w3.org/Graphics/SVG/1.1/DTD/svg11.dtd"><svg t="1513673852288" class="icon" style="" viewBox="0 0 1024 1024" version="1.1" xmlns="http://www.w3.org/2000/svg" p-id="27806" xmlns:xlink="http://www.w3.org/1999/xlink" width="128" height="128"><defs><style type="text/css"></style></defs><path d="M512 15.968C238.048 15.968 15.968 238.048 15.968 512S238.048 1008.032 512 1008.032 1008.032 785.952 1008.032 512 785.952 15.968 512 15.968zM718.144 638.944c0 49.952-40.864 90.816-90.816 90.816l-76.512 0 0 122.816c0 21.44-17.376 38.816-38.816 38.816-21.44 0-38.816-17.376-38.816-38.816l0-122.816-76.512 0c-49.952 0-90.816-40.864-90.816-90.816l0-236.864 0.032 0C306.272 288.576 398.4 196.704 512 196.704s205.728 91.904 206.112 205.408l0.032 0L718.144 638.944z" p-id="27807" fill="#0b6cf3"></path></svg>