<?xml version="1.0" standalone="no"?><!DOCTYPE svg PUBLIC "-//W3C//DTD SVG 1.1//EN" "http://www.w3.org/Graphics/SVG/1.1/DTD/svg11.dtd"><svg t="1513674495772" class="icon" style="" viewBox="0 0 1024 1024" version="1.1" xmlns="http://www.w3.org/2000/svg" p-id="31960" xmlns:xlink="http://www.w3.org/1999/xlink" width="128" height="128"><defs><style type="text/css"></style></defs><path d="M511.489534 216.694154l-0.005115 0c-24.858342 0-45.009966 20.151624-45.009966 45.013035 0 1.230641 0.60151 2.264871 0.702785 3.47403 14.512975-2.052092 29.231568-3.47403 44.309227-3.47403s29.795229 1.421938 44.309227 3.470961c0.101275-1.20609 0.703808-2.239297 0.703808-3.470961C556.4995 236.845778 536.347876 216.694154 511.489534 216.694154z" p-id="31961" fill="#e98f36"></path><path d="M458.214937 358.835788c-1.435237 0-2.837738 0.136056-4.201367 0.388731l-0.007161-0.02762c-0.090022 0.025574-0.175952 0.050126-0.265974 0.0757-1.192791 0.232216-2.351824 0.554454-3.468915 0.963644-54.157427 15.377391-99.480424 50.864464-128.606625 97.618605l-0.001023 0.003069c-2.501179 3.625431-3.968128 8.019117-3.965059 12.756523 0 12.43224 10.071209 22.506517 22.502426 22.506517 9.257942 0 17.206474-5.588523 20.661067-13.575928 23.372979-36.160192 59.077946-63.235325 101.483413-75.3085l-0.021483-0.12378c10.732052-1.923197 18.878018-11.241495 18.878018-22.453323C481.203277 369.055329 470.910082 358.835788 458.214937 358.835788z" p-id="31962" fill="#e98f36"></path><path d="M511.488511 0C229.000567 0 0 229.000567 0 511.488511s229.000567 511.488511 511.488511 511.488511 511.488511-229.000567 511.488511-511.488511S793.976456 0 511.488511 0zM826.575664 756.843413 196.400336 756.843413c-24.861411 0-45.013035-20.151624-45.013035-45.012012 0-24.858342 20.151624-45.009966 45.013035-45.009966L826.575664 666.821435c24.861411 0 45.013035 20.151624 45.013035 45.009966C871.588699 736.691788 851.436052 756.843413 826.575664 756.843413zM826.581802 621.8084l-630.184535 0c-24.858342-0.003069-45.009966-20.152647-45.009966-45.013035 0-24.858342 20.151624-45.009966 45.013035-45.009966l3.578374 0C217.617902 408.809239 305.978565 308.838809 422.75753 274.597722c-0.613786-4.245355-1.297135-8.473319-1.297135-12.888488 0-49.723844 40.305295-90.02607 90.02607-90.02607 49.719752 0 90.02607 40.306318 90.02607 90.02607 0 4.416192-0.682326 8.643133-1.299181 12.888488 116.777942 34.24211 205.14372 134.212539 222.782913 257.187676l3.578374 0c24.861411 0 45.013035 20.151624 45.013035 45.013035C871.588699 601.656775 851.436052 621.802262 826.581802 621.8084z" p-id="31963" fill="#e98f36"></path></svg>