<?xml version="1.0" standalone="no"?><!DOCTYPE svg PUBLIC "-//W3C//DTD SVG 1.1//EN" "http://www.w3.org/Graphics/SVG/1.1/DTD/svg11.dtd"><svg t="1513673786423" class="icon" style="" viewBox="0 0 1034 1024" version="1.1" xmlns="http://www.w3.org/2000/svg" p-id="26194" xmlns:xlink="http://www.w3.org/1999/xlink" width="129.25" height="128"><defs><style type="text/css"></style></defs><path d="M517.12 1024c-282.76736 0-512-229.23264-512-512s229.23264-512 512-512 512 229.23264 512 512-229.23264 512-512 512z m292.68992-639.52896c19.53792-54.31296-30.3616-118.75328-32.49152-121.46688l-5.9904-7.6288-9.472 2.06848c-1.9456 0.43008-29.184 6.81984-55.66464 22.3744 0.4608-0.27648 0.8704-0.70656 1.3312-0.9728-24.76032-35.39968-70.6048-54.94784-73.08288-55.99232l-8.93952-3.71712-7.2704 6.43072c-1.3824 1.2288-19.61984 17.7152-34.6624 41.51296 1.4336 0.39936 2.7648 1.01376 4.1984 1.4336a274.37056 274.37056 0 0 0-77.568-11.4176c-114.05312 0-212.15232 69.60128-254.06464 168.5504h-28.13952S169.984 653.73184 376.832 756.8384v47.36h280.2688V756.8384c122.99264-61.30688 152.34048-166.8096 155.91424-242.25792h-414.9248v-23.1936H813.3632c-0.67584-39.1168-7.424-65.73056-7.424-65.73056H784.7936c10.16832-11.75552 19.2512-25.088 25.01632-41.17504z m-299.61216-96.45056c96.5632 0 180.24448 56.2176 220.0576 137.6256h-35.072c-37.0688-63.73376-106.0864-106.7008-184.9856-106.7008-78.8992 0-147.90656 42.96704-184.99584 106.7008h-35.06176c39.82336-81.408 123.48416-137.6256 220.0576-137.6256zM238.29504 514.57024h100.51584v-23.20384H238.2848v23.20384z m457.03168-185.91744a277.49376 277.49376 0 0 0-24.10496-19.456c3.4816-4.5056 7.39328-8.62208 11.56096-12.45184-0.06144 0.06144-0.14336 0.09216-0.2048 0.14336-12.83072-18.67776-35.65568-33.39264-50.96448-41.22624a187.136 187.136 0 0 0-17.8176 21.7088c-4.20864-1.73056-8.67328-2.9184-13.0048-4.43392a276.5824 276.5824 0 0 1 160.19456 146.31936c-1.19808-2.63168-2.08896-5.4272-3.36896-8.00768 9.58464-9.64608 17.79712-22.50752 23.10144-37.24288 9.75872-27.136-9.04192-64.32768-21.9136-83.7632-18.71872 5.69344-48.57856 18.41152-63.47776 38.4m-185.12896 21.22752c-60.8768 0-114.87232 29.91104-148.15232 75.776H658.33984c-33.28-45.86496-87.26528-75.776-148.14208-75.776" p-id="26195" fill="#08f6d5"></path></svg>