<?xml version="1.0" standalone="no"?><!DOCTYPE svg PUBLIC "-//W3C//DTD SVG 1.1//EN" "http://www.w3.org/Graphics/SVG/1.1/DTD/svg11.dtd"><svg t="1513653212462" class="icon" style="" viewBox="0 0 1024 1024" version="1.1" xmlns="http://www.w3.org/2000/svg" p-id="3080" xmlns:xlink="http://www.w3.org/1999/xlink" width="128" height="128"><defs><style type="text/css"></style></defs><path d="M468.553564 61.619322l150.798848 0c29.666334 0 45.191514-6.739613 45.191514-33.758242s-15.525181-27.86108-46.756067-27.86108l-149.234295 0c-31.230887 0-48.621496 2.226479-48.621496 27.86108C419.932068 55.48146 437.322677 61.619322 468.553564 61.619322zM336.348828 363.878945l420.082506 0c20.279015 0 28.462831-9.628019 28.462831-29.907034s-8.183816-33.096315-28.462831-33.096315L336.348828 300.875595c-20.279015 0-33.698067 10.951872-33.698067 31.230887S316.069813 363.878945 336.348828 363.878945zM336.348828 722.763354l420.082506 0c20.279015 0 28.462831-7.100664 28.462831-27.379679-1.564553-21.843568-9.688194-31.050361-30.027384-31.050361L336.348828 664.333314c-20.279015 0-33.698067 7.943116-33.698067 28.222131S316.069813 722.763354 336.348828 722.763354zM876.420521 0.2407l-57.346888 0c-20.279015 0-36.225422 7.160839-36.225422 27.439854s15.946407 34.299818 36.225422 34.299818l69.983663 0c27.680555 0 73.35347 43.687136 73.35347 73.293295l0 755.197743c0 31.591937-45.010989 73.293295-73.35347 73.293295L213.65176 963.764706c-25.634601 0-92.007757-41.641182-92.007757-73.293295L121.644003 133.408239c0-28.944232 42.303109-73.293295 73.293295-73.293295l66.974907 0c20.279015 0 39.354528-12.155374 39.354528-32.434389S282.191221 0.2407 261.912205 0.2407L207.634248 0.2407c-102.959629 0-146.646765 63.966151-146.646765 148.151143l0 721.198801C60.987483 960.094024 115.626491 1024 215.396838 1024l653.140742 0c99.830522 0 154.409355-53.01428 154.409355-154.34918L1022.946935 148.391843C1023.007111 64.206852 971.557384 0.2407 876.420521 0.2407zM336.348828 542.839748l420.082506 0c20.279015 0 28.462831-9.86872 28.462831-30.147735-1.564553-21.783393-9.688194-30.20791-30.027384-30.20791L336.348828 482.484104c-20.279015 0-33.698067 9.808544-33.698067 30.087559S316.069813 542.839748 336.348828 542.839748z" p-id="3081" fill="#999999"></path></svg>